#!OML:ASF F:\VICON\USERDATA\INSTALL\rory3\rory3.ASF
:FULLY-SPECIFIED
:DEGREES
1591
root 1.6293 19.2813 -4.79729 3.53461 6.86475 -8.80904
lowerback 18.9579 0.637951 -7.0204
upperback 6.15161 -0.50132 -1.44658
thorax -3.9043 -0.254307 2.54864
lowerneck 1.18284 -6.95025 -11.5076
upperneck 4.6964 -9.81589 11.9016
head 2.35297 -4.9193 5.2114
rclavicle -2.70347e-014 -2.38542e-014
rhumerus -22.9373 26.7648 -88.6511
rradius 60.126
rwrist 24.4945
rhand -20.0864 8.70264
rfingers 7.12502
rthumb 6.25638 -21.185
lclavicle -2.70347e-014 -2.38542e-014
lhumerus -22.9795 -33.8167 89.8461
lradius 53.3906
lwrist -2.2205
lhand 0.597203 29.0928
lfingers 7.12502
lthumb 26.1623 57.3101
rfemur -48.2986 11.5146 -7.96851
rtibia 28.8545
rfoot 5.20562 -21.6356
rtoes -2.39053
lfemur -8.91618 -10.7236 -7.73275
ltibia 11.7407
lfoot -10.1761 10.7768
ltoes -6.86872
1592
root 1.60599 19.2822 -4.77954 3.94159 7.16748 -8.62701
lowerback 19.0472 0.715206 -7.19911
upperback 6.20452 -0.439696 -1.5011
thorax -3.89671 -0.22499 2.57804
lowerneck 0.898409 -6.82385 -11.3222
upperneck 5.40394 -9.65558 11.6982
head 2.57011 -4.82546 5.10769
rclavicle -3.10104e-014 -1.27222e-014
rhumerus -23.075 28.4839 -89.3825
rradius 59.1806
rwrist 24.9639
rhand -18.9146 8.53933
rfingers 7.12502
rthumb 7.38754 -21.3117
lclavicle -3.10104e-014 -1.27222e-014
lhumerus -23.5881 -35.14 90.4749
lradius 52.6838
lwrist -2.79271
lhand 2.02707 29.2946
lfingers 7.12502
lthumb 27.5305 57.3016
rfemur -48.6312 11.6845 -8.27525
rtibia 28.5453
rfoot 4.78808 -21.8815
rtoes -1.81723
lfemur -9.34046 -10.7118 -7.74916
ltibia 11.6751
lfoot -10.2873 10.6425
ltoes -7.24231
1593
root 1.58138 19.2812 -4.759 4.29805 7.39255 -8.6166
lowerback 19.1651 0.816122 -7.22444
upperback 6.24349 -0.320704 -1.50191
thorax -3.92694 -0.166168 2.56579
lowerneck 0.527466 -6.78433 -11.2414
upperneck 6.19764 -9.60778 11.4783
head 2.84582 -4.78689 5.00624
rclavicle 2.94201e-014 4.13472e-014
rhumerus -23.2837 30.1786 -90.0994
rradius 58.6619
rwrist 24.7011
rhand -16.809 7.88302
rfingers 7.12502
rthumb 9.41959 -21.8865
lclavicle 2.94201e-014 4.13472e-014
lhumerus -24.1961 -36.4322 91.1305
lradius 51.9763
lwrist -3.36599
lhand 3.81691 29.5889
lfingers 7.12502
lthumb 29.2409 57.311
rfemur -48.9185 11.9325 -8.3258
rtibia 28.2187
rfoot 4.42298 -22.1178
rtoes -1.38935
lfemur -9.77921 -10.5731 -7.59073
ltibia 11.7158
lfoot -10.3346 10.5254
ltoes -7.99395
1594
root 1.55393 19.2767 -4.73748 4.66832 7.59514 -8.71778
lowerback 19.2391 0.929701 -7.10943
upperback 6.29084 -0.155388 -1.50353
thorax -3.93177 -0.085285 2.46281
lowerneck 0.37537 -6.75723 -11.2057
upperneck 6.77576 -9.59236 11.4272
head 3.03614 -4.77038 4.97389
rclavicle -1.27222e-014 -1.11319e-014
rhumerus -23.4032 31.5841 -90.7148
rradius 58.2887
rwrist 25.228
rhand -15.9055 8.16371
rfingers 7.12502
rthumb 10.2913 -21.5645
lclavicle -1.27222e-014 -1.11319e-014
lhumerus -24.7373 -37.7952 91.7465
lradius 51.2692
lwrist -3.96193
lhand 4.86112 30.0449
lfingers 7.12502
lthumb 30.2375 57.5889
rfemur -49.2488 12.2091 -8.21911
rtibia 27.8773
rfoot 4.21796 -22.3427
rtoes -1.38247
lfemur -10.2746 -10.4084 -7.28735
ltibia 11.8309
lfoot -10.3597 10.3272
ltoes -8.20594
1595
root 1.52875 19.2716 -4.71394 5.00563 7.81923 -8.63327
lowerback 19.3889 1.02972 -7.13107
upperback 6.32811 -0.0425753 -1.55395
thorax -3.97976 -0.028516 2.396
lowerneck 0.438174 -6.65431 -11.1205
upperneck 7.18374 -9.48229 11.3722
head 3.12701 -4.71341 4.94821
rclavicle 3.33958e-014 2.8625e-014
rhumerus -23.4803 32.5879 -91.0816
rradius 57.6798
rwrist 28.7905
rhand -19.8807 10.4218
rfingers 7.12502
rthumb 6.45502 -19.4598
lclavicle 3.33958e-014 2.8625e-014
lhumerus -25.2982 -39.005 92.4108
lradius 50.4722
lwrist -4.81364
lhand 6.03855 30.3657
lfingers 7.12502
lthumb 31.3601 57.698
rfemur -49.4772 12.4694 -8.29135
rtibia 27.5317
rfoot 3.88269 -22.6084
rtoes -1.18076
lfemur -10.7266 -10.4172 -7.18907
ltibia 12.0334
lfoot -10.6651 10.1185
ltoes -7.81052
1596
root 1.5068 19.2668 -4.68826 5.38602 8.08342 -8.3639
lowerback 19.531 1.10085 -7.33681
upperback 6.34742 -0.00225556 -1.61268
thorax -4.03411 -0.00706635 2.4399
lowerneck 0.508456 -6.52465 -11.0305
upperneck 7.57893 -9.32779 11.2252
head 3.20368 -4.63675 4.8963
rclavicle -1.43125e-014 1.11319e-014
rhumerus -23.4638 33.2023 -91.2387
rradius 57.2345
rwrist 32.9169
rhand -24.4879 11.2874
rfingers 7.12502
rthumb 2.00619 -18.6829
lclavicle -1.43125e-014 1.11319e-014
lhumerus -25.8683 -40.0726 93.068
lradius 49.7244
lwrist -5.59183
lhand 7.5027 30.7598
lfingers 7.12502
lthumb 32.7541 57.8116
rfemur -49.6533 12.6709 -8.54542
rtibia 27.2104
rfoot 3.57495 -22.9087
rtoes -1.35793
lfemur -11.2251 -10.3971 -7.31475
ltibia 12.2843
lfoot -10.9976 9.84085
ltoes -7.57385
1597
root 1.48168 19.2587 -4.65918 5.79622 8.36711 -8.11071
lowerback 19.5633 1.1505 -7.55106
upperback 6.39748 0.0223522 -1.63693
thorax -3.99641 0.00276804 2.5291
lowerneck 0.514864 -6.37721 -11.0015
upperneck 7.97607 -9.14206 11.0819
head 3.29154 -4.54439 4.85485
rclavicle 2.14687e-014 -3.49861e-014
rhumerus -23.3182 33.4402 -91.3088
rradius 57.2461
rwrist 34.6691
rhand -25.4926 10.263
rfingers 7.12502
rthumb 1.03581 -19.7143
lclavicle 2.14687e-014 -3.49861e-014
lhumerus -26.3534 -40.9746 93.627
lradius 49.1332
lwrist -5.90645
lhand 8.79296 31.0479
lfingers 7.12502
lthumb 33.9806 57.8359
rfemur -49.8586 12.8795 -8.76146
rtibia 26.9502
rfoot 3.26992 -23.2359
rtoes -1.31062
lfemur -11.743 -10.2476 -7.42524
ltibia 12.4881
lfoot -11.0463 9.45864
ltoes -8.03609
1598
root 1.45359 19.2483 -4.62504 6.10046 8.70487 -7.98547
lowerback 19.5942 1.18761 -7.54764
upperback 6.49209 0.0739997 -1.67045
thorax -3.91504 0.0243357 2.47965
lowerneck 0.517776 -6.24821 -10.8778
upperneck 8.33559 -8.98143 10.9579
head 3.36857 -4.46163 4.8031
rclavicle -4.29375e-014 -9.54166e-015
rhumerus -23.1685 33.3186 -91.367
rradius 57.5355
rwrist 34.6056
rhand -24.7443 9.34214
rfingers 7.12502
rthumb 1.75848 -20.6304
lclavicle -4.29375e-014 -9.54166e-015
lhumerus -26.8402 -41.6874 94.1059
lradius 48.6265
lwrist -6.08908
lhand 9.51541 30.9122
lfingers 7.12502
lthumb 34.6666 57.5454
rfemur -49.9481 13.1211 -8.78222
rtibia 26.7335
rfoot 2.84478 -23.5996
rtoes -0.84528
lfemur -12.1684 -10.0505 -7.40591
ltibia 12.6986
lfoot -10.9645 8.95335
ltoes -8.34108
1599
root 1.42868 19.2383 -4.58676 6.31919 9.06979 -7.89916
lowerback 19.7294 1.16006 -7.44634
upperback 6.58028 0.0493977 -1.71695
thorax -3.88853 0.0113225 2.3781
lowerneck 0.353515 -6.09909 -10.7329
upperneck 8.85639 -8.78781 10.8047
head 3.51621 -4.35694 4.73418
rclavicle 1.51076e-014 7.95139e-015
rhumerus -23.0231 33.175 -91.4126
rradius 57.8896
rwrist 33.9054
rhand -23.9661 9.24801
rfingers 7.12502
rthumb 2.51007 -20.717
lclavicle 1.51076e-014 7.95139e-015
lhumerus -27.4182 -41.967 94.5386
lradius 48.1085
lwrist -6.48984
lhand 9.81859 30.7705
lfingers 7.12502
lthumb 34.9543 57.3372
rfemur -49.8899 13.3198 -8.64787
rtibia 26.5158
rfoot 2.5433 -23.8804
rtoes -0.894393
lfemur -12.5517 -9.9004 -7.37422
ltibia 13.0184
lfoot -11.0188 8.42274
ltoes -8.62007
1600
root 1.40436 19.2293 -4.54793 6.55286 9.40197 -7.83778
lowerback 19.8228 1.1081 -7.33993
upperback 6.6619 -0.000346419 -1.72833
thorax -3.8452 -0.0146271 2.3171
lowerneck 0.215138 -5.93567 -10.6684
upperneck 9.37552 -8.57265 10.6348
head 3.66051 -4.2457 4.67573
rclavicle -2.38542e-015 -3.02153e-014
rhumerus -22.9073 32.9471 -91.377
rradius 58.3666
rwrist 33.0124
rhand -22.2263 10.0344
rfingers 7.12502
rthumb 4.19027 -19.9041
lclavicle -2.38542e-015 -3.02153e-014
lhumerus -27.9469 -41.9565 94.8492
lradius 47.8307
lwrist -6.77073
lhand 9.79585 31.4138
lfingers 7.12502
lthumb 34.9327 57.9856
rfemur -49.802 13.4627 -8.38678
rtibia 26.2691
rfoot 2.32608 -24.0742
rtoes -1.33641
lfemur -13.0089 -9.75593 -7.30991
ltibia 13.4586
lfoot -11.1378 7.89005
ltoes -8.50744
1601
root 1.37524 19.2165 -4.50828 6.86974 9.74321 -7.83381
lowerback 19.7284 1.06153 -7.24067
upperback 6.76221 -0.0233863 -1.69245
thorax -3.68687 -0.0319929 2.30499
lowerneck 0.286534 -5.74311 -10.5822
upperneck 9.6664 -8.3202 10.4611
head 3.69713 -4.12324 4.62296
rclavicle 7.95139e-016 -1.27222e-014
rhumerus -22.6974 32.6128 -91.2513
rradius 58.9206
rwrist 31.677
rhand -19.612 10.7981
rfingers 7.12502
rthumb 6.71436 -19.0754
lclavicle 7.95139e-016 -1.27222e-014
lhumerus -28.2653 -41.6713 94.9614
lradius 47.9402
lwrist -6.6908
lhand 7.94025 31.9586
lfingers 7.12502
lthumb 33.1702 58.9227
rfemur -49.8306 13.6272 -8.08989
rtibia 26.0424
rfoot 2.15076 -24.2725
rtoes -1.61877
lfemur -13.6083 -9.48921 -7.15205
ltibia 13.9269
lfoot -11.1084 7.34094
ltoes -9.11214
1602
root 1.34548 19.2022 -4.46613 7.15879 10.0541 -7.82016
lowerback 19.6362 1.01968 -7.16835
upperback 6.89141 -0.0439715 -1.6524
thorax -3.49837 -0.0498105 2.31179
lowerneck 0.198519 -5.55401 -10.4789
upperneck 10.0541 -8.0646 10.282
head 3.78893 -3.99408 4.56045
rclavicle -1.27222e-014 -2.06736e-014
rhumerus -22.3651 32.3922 -91.0745
rradius 59.5577
rwrist 29.4434
rhand -19.0254 9.81816
rfingers 7.12502
rthumb 7.2806 -20.0366
lclavicle -1.27222e-014 -2.06736e-014
lhumerus -28.4137 -41.0654 94.8562
lradius 48.3258
lwrist -6.6114
lhand 5.41659 31.1775
lfingers 7.12502
lthumb 30.7672 58.6231
rfemur -49.8596 13.8872 -7.84088
rtibia 25.8612
rfoot 1.90392 -24.4206
rtoes -1.54783
lfemur -14.1558 -9.25031 -7.00598
ltibia 14.4176
lfoot -11.13 6.76613
ltoes -9.22364
